<?xml version="1.0" encoding="UTF-8" standalone="no"?>
<svg
   xmlns:dc="http://purl.org/dc/elements/1.1/"
   xmlns:cc="http://creativecommons.org/ns#"
   xmlns:rdf="http://www.w3.org/1999/02/22-rdf-syntax-ns#"
   xmlns:svg="http://www.w3.org/2000/svg"
   xmlns="http://www.w3.org/2000/svg"
   xmlns:sodipodi="http://sodipodi.sourceforge.net/DTD/sodipodi-0.dtd"
   xmlns:inkscape="http://www.inkscape.org/namespaces/inkscape"
   version="1.1"
   id="svg2"
   viewBox="0 0 150 150"
   height="150"
   width="150.00002"
   inkscape:version="0.91 r13725"
   sodipodi:docname="logo.svg"
   inkscape:export-filename="/Users/jwass/sc/event-data-common/doc/logo.png"
   inkscape:export-xdpi="90"
   inkscape:export-ydpi="90">
  <sodipodi:namedview
     pagecolor="#ffffff"
     bordercolor="#666666"
     borderopacity="1"
     objecttolerance="10"
     gridtolerance="10"
     guidetolerance="10"
     inkscape:pageopacity="0"
     inkscape:pageshadow="2"
     inkscape:window-width="1280"
     inkscape:window-height="756"
     id="namedview4266"
     showgrid="true"
     inkscape:zoom="1"
     inkscape:cx="75.985618"
     inkscape:cy="74.273266"
     inkscape:window-x="0"
     inkscape:window-y="1"
     inkscape:window-maximized="1"
     inkscape:current-layer="g4867"
     units="px">
    <inkscape:grid
       type="xygrid"
       id="grid4951"
       empspacing="18"
       spacingx="1.3999999"
       spacingy="1.4" />
  </sodipodi:namedview>
  <defs
     id="defs4" />
  <metadata
     id="metadata7">
    <rdf:RDF>
      <cc:Work
         rdf:about="">
        <dc:format>image/svg+xml</dc:format>
        <dc:type
           rdf:resource="http://purl.org/dc/dcmitype/StillImage" />
        <dc:title></dc:title>
      </cc:Work>
    </rdf:RDF>
  </metadata>
  <g
     transform="translate(53.134522,28.673311)"
     id="g4867">
    <g
       id="g4953"
       transform="translate(-4.7302541,4.3997965)">
      <path
         id="path4869"
         d="m -38.22929,-22.945586 c 13.61869,-1.69313 21.278942,-0.88757 28.7436358,0 -0.5501678,6.86824 2.538645,24.6698399 -5.1708138,33.76234 l -17.109306,0 c -7.772233,-7.0809001 -5.051949,-21.9563 -6.463516,-33.76234 z"
         style="fill:#000000;fill-opacity:1;fill-rule:evenodd;stroke:none;stroke-width:0.04410399px;stroke-linecap:butt;stroke-linejoin:miter;stroke-opacity:1"
         inkscape:connector-curvature="0" />
    </g>
    <g
       id="g4960"
       transform="matrix(0.92387953,-0.38268343,0.38268343,0.92387953,47.143502,-4.78446)">
      <path
         inkscape:connector-curvature="0"
         style="fill:#000000;fill-opacity:1;fill-rule:evenodd;stroke:none;stroke-width:0.04410399px;stroke-linecap:butt;stroke-linejoin:miter;stroke-opacity:1"
         d="m -38.22929,-22.945586 c 13.61869,-1.69313 21.278942,-0.88757 28.7436358,0 -0.5501678,6.86824 2.538645,24.6698399 -5.1708138,33.76234 l -17.109306,0 c -7.772233,-7.0809001 -5.051949,-21.9563 -6.463516,-33.76234 z"
         id="path4962" />
      <path
         id="path4968"
         d="m -41.049959,-19.056946 c 1.849098,0.01 3.920121,0.3767 6.075327,0.978 l 1.140673,23.1925999 c -5.636917,-5.73420002 -16.21526,-10.1763 -14.599972,-18.6300999 0.742075,-4.0712 3.597729,-5.5586 7.383972,-5.5405 z m -0.04402,2.0838 c -2.827424,-0.029 -5.239118,2.3564 -5.210815,4.5213 0.712502,5.3422999 4.193714,9.4341999 11.190267,11.93849988 L -35.354774,-12.679946 c -1.675415,-3.1237 -3.804651,-4.2735 -5.739205,-4.2932 z"
         style="fill:#000000;fill-opacity:1;fill-rule:evenodd;stroke:none;stroke-width:0.04410399px;stroke-linecap:butt;stroke-linejoin:miter;stroke-opacity:1"
         inkscape:connector-curvature="0" />
    </g>
    <g
       transform="matrix(0.70710678,-0.70710678,0.70710678,0.70710678,95.363857,-15.345646)"
       id="g4972">
      <path
         id="path4974"
         d="m -38.22929,-22.945586 c 13.61869,-1.69313 21.278942,-0.88757 28.7436358,0 -0.5501678,6.86824 2.538645,24.6698399 -5.1708138,33.76234 l -17.109306,0 c -7.772233,-7.0809001 -5.051949,-21.9563 -6.463516,-33.76234 z"
         style="fill:#000000;fill-opacity:1;fill-rule:evenodd;stroke:none;stroke-width:0.04410399px;stroke-linecap:butt;stroke-linejoin:miter;stroke-opacity:1"
         inkscape:connector-curvature="0" />
      <path
         style="fill:#000000;fill-opacity:1;fill-rule:evenodd;stroke:none;stroke-width:0.04410399px;stroke-linecap:butt;stroke-linejoin:miter;stroke-opacity:1"
         d="m -39.397024,6.7553539 c 1.799706,-0.4246 3.734862,-1.2491 5.699521,-2.3199 l -4.106583,-22.8545999 c -4.202268,6.8555 -13.510002,13.5636999 -10.034131,21.4372999 1.639015,3.7999 4.756086,4.6066 8.441193,3.7372 z m -0.511722,-2.0205 c -2.748459,0.6641 -5.634958,-1.1173 -6.094442,-3.233 -0.507703,-5.3656 1.963637,-10.1358 8.217376,-14.1500999 l 2.503226,11.90869988 c -0.929676,3.42060002 -2.745635,5.01990002 -4.62616,5.47440002 z"
         id="path4978"
         inkscape:connector-curvature="0" />
    </g>
    <g
       id="g4984"
       transform="matrix(0.38268343,-0.92387953,0.92387953,0.38268343,-12.188757,28.253467)">
      <path
         inkscape:connector-curvature="0"
         style="fill:#000000;fill-opacity:1;fill-rule:evenodd;stroke:none;stroke-width:0.04410399px;stroke-linecap:butt;stroke-linejoin:miter;stroke-opacity:1"
         d="m -38.22929,-22.945586 c 13.61869,-1.69313 21.278942,-0.88757 28.7436358,0 -0.5501678,6.86824 2.538645,24.6698399 -5.1708138,33.76234 l -17.109306,0 c -7.772233,-7.0809001 -5.051949,-21.9563 -6.463516,-33.76234 z"
         id="path4986" />
      <path
         inkscape:connector-curvature="0"
         style="fill:#000000;fill-opacity:1;fill-rule:evenodd;stroke:none;stroke-width:0.04410399px;stroke-linecap:butt;stroke-linejoin:miter;stroke-opacity:1"
         d="m -4.3988252,-19.056946 c -1.849098,0.01 -3.920121,0.3767 -6.0753268,0.978 l -1.140673,23.1925999 c 5.6369168,-5.73420002 16.2152598,-10.1763 14.5999718,-18.6300999 -0.742075,-4.0712 -3.59772903,-5.5586 -7.383972,-5.5405 z m 0.04402,2.0838 c 2.827424,-0.029 5.23911797,2.3564 5.21081497,4.5213 -0.712502,5.3422999 -4.19371397,9.4341999 -11.19026677,11.93849988 L -10.09401,-12.679946 c 1.6754148,-3.1237 3.8046508,-4.2735 5.7392048,-4.2932 z"
         id="path4988" />
    </g>
    <g
       id="g4996"
       transform="matrix(0,-1,1,0,30.43903,23.048777)">
      <path
         inkscape:connector-curvature="0"
         style="fill:#000000;fill-opacity:1;fill-rule:evenodd;stroke:none;stroke-width:0.04410399px;stroke-linecap:butt;stroke-linejoin:miter;stroke-opacity:1"
         d="m -38.22929,-22.945586 c 13.61869,-1.69313 21.278942,-0.88757 28.7436358,0 -0.5501678,6.86824 2.538645,24.6698399 -5.1708138,33.76234 l -17.109306,0 c -7.772233,-7.0809001 -5.051949,-21.9563 -6.463516,-33.76234 z"
         id="path4998" />
      <path
         inkscape:connector-curvature="0"
         style="fill:#000000;fill-opacity:1;fill-rule:evenodd;stroke:none;stroke-width:0.04410399px;stroke-linecap:butt;stroke-linejoin:miter;stroke-opacity:1"
         d="m -4.3988252,-19.056946 c -1.849098,0.01 -3.920121,0.3767 -6.0753268,0.978 l -1.140673,23.1925999 c 5.6369168,-5.73420002 16.2152598,-10.1763 14.5999718,-18.6300999 -0.742075,-4.0712 -3.59772903,-5.5586 -7.383972,-5.5405 z m 0.04402,2.0838 c 2.827424,-0.029 5.23911797,2.3564 5.21081497,4.5213 -0.712502,5.3422999 -4.19371397,9.4341999 -11.19026677,11.93849988 L -10.09401,-12.679946 c 1.6754148,-3.1237 3.8046508,-4.2735 5.7392048,-4.2932 z"
         id="path5000" />
      <path
         id="path5004"
         d="m -41.049959,-19.056946 c 1.849098,0.01 3.920121,0.3767 6.075327,0.978 l 1.140673,23.1925999 c -5.636917,-5.73420002 -16.21526,-10.1763 -14.599972,-18.6300999 0.742075,-4.0712 3.597729,-5.5586 7.383972,-5.5405 z m -0.04402,2.0838 c -2.827424,-0.029 -5.239118,2.3564 -5.210815,4.5213 0.712502,5.3422999 4.193714,9.4341999 11.190267,11.93849988 L -35.354774,-12.679946 c -1.675415,-3.1237 -3.804651,-4.2735 -5.739205,-4.2932 z"
         style="fill:#000000;fill-opacity:1;fill-rule:evenodd;stroke:none;stroke-width:0.04410399px;stroke-linecap:butt;stroke-linejoin:miter;stroke-opacity:1"
         inkscape:connector-curvature="0" />
    </g>
    <g
       transform="matrix(-0.38268343,-0.92387953,0.92387953,-0.38268343,71.511669,21.968741)"
       id="g5008">
      <path
         id="path5010"
         d="m -38.22929,-22.945586 c 13.61869,-1.69313 21.278942,-0.88757 28.7436358,0 -0.5501678,6.86824 2.538645,24.6698399 -5.1708138,33.76234 l -17.109306,0 c -7.772233,-7.0809001 -5.051949,-21.9563 -6.463516,-33.76234 z"
         style="fill:#000000;fill-opacity:1;fill-rule:evenodd;stroke:none;stroke-width:0.04410399px;stroke-linecap:butt;stroke-linejoin:miter;stroke-opacity:1"
         inkscape:connector-curvature="0" />
      <path
         id="path5012"
         d="m -4.3988252,-19.056946 c -1.849098,0.01 -3.920121,0.3767 -6.0753268,0.978 l -1.140673,23.1925999 c 5.6369168,-5.73420002 16.2152598,-10.1763 14.5999718,-18.6300999 -0.742075,-4.0712 -3.59772903,-5.5586 -7.383972,-5.5405 z m 0.04402,2.0838 c 2.827424,-0.029 5.23911797,2.3564 5.21081497,4.5213 -0.712502,5.3422999 -4.19371397,9.4341999 -11.19026677,11.93849988 L -10.09401,-12.679946 c 1.6754148,-3.1237 3.8046508,-4.2735 5.7392048,-4.2932 z"
         style="fill:#000000;fill-opacity:1;fill-rule:evenodd;stroke:none;stroke-width:0.04410399px;stroke-linecap:butt;stroke-linejoin:miter;stroke-opacity:1"
         inkscape:connector-curvature="0" />
      <path
         style="fill:#000000;fill-opacity:1;fill-rule:evenodd;stroke:none;stroke-width:0.04410399px;stroke-linecap:butt;stroke-linejoin:miter;stroke-opacity:1"
         d="m -39.397024,6.7553539 c 1.799706,-0.4246 3.734862,-1.2491 5.699521,-2.3199 l -4.106583,-22.8545999 c -4.202268,6.8555 -13.510002,13.5636999 -10.034131,21.4372999 1.639015,3.7999 4.756086,4.6066 8.441193,3.7372 z m -0.511722,-2.0205 c -2.748459,0.6641 -5.634958,-1.1173 -6.094442,-3.233 -0.507703,-5.3656 1.963637,-10.1358 8.217376,-14.1500999 l 2.503226,11.90869988 c -0.929676,3.42060002 -2.745635,5.01990002 -4.62616,5.47440002 z"
         id="path5014"
         inkscape:connector-curvature="0" />
    </g>
    <g
       id="g5020"
       transform="matrix(-0.70710678,-0.70710678,0.70710678,-0.70710678,-40.620954,74.895677)">
      <path
         inkscape:connector-curvature="0"
         style="fill:#000000;fill-opacity:1;fill-rule:evenodd;stroke:none;stroke-width:0.04410399px;stroke-linecap:butt;stroke-linejoin:miter;stroke-opacity:1"
         d="m -38.22929,-22.945586 c 13.61869,-1.69313 21.278942,-0.88757 28.7436358,0 -0.5501678,6.86824 2.538645,24.6698399 -5.1708138,33.76234 l -17.109306,0 c -7.772233,-7.0809001 -5.051949,-21.9563 -6.463516,-33.76234 z"
         id="path5022" />
      <path
         style="fill:#000000;fill-opacity:1;fill-rule:evenodd;stroke:none;stroke-width:0.04410399px;stroke-linecap:butt;stroke-linejoin:miter;stroke-opacity:1"
         d="m -8.0517602,6.7553539 c -1.799706,-0.4246 -3.7348618,-1.2491 -5.6995208,-2.3199 l 4.1065828,-22.8545999 c 4.202268,6.8555 13.510002,13.5636999 10.03413097,21.4372999 -1.63901597,3.7999 -4.75608697,4.6066 -8.44119297,3.7372 z m 0.511722,-2.0205 c 2.748459,0.6641 5.634958,-1.1173 6.094442,-3.233 0.50770297,-5.3656 -1.963637,-10.1358 -8.217376,-14.1500999 l -2.5032258,11.90869988 c 0.929676,3.42060002 2.7456348,5.01990002 4.6261598,5.47440002 z"
         id="path5030"
         inkscape:connector-curvature="0" />
    </g>
    <g
       transform="matrix(-0.92387953,-0.38268343,0.38268343,-0.92387953,3.7658799,81.201518)"
       id="g5032">
      <path
         id="path5034"
         d="m -38.22929,-22.945586 c 13.61869,-1.69313 21.278942,-0.88757 28.7436358,0 -0.5501678,6.86824 2.538645,24.6698399 -5.1708138,33.76234 l -17.109306,0 c -7.772233,-7.0809001 -5.051949,-21.9563 -6.463516,-33.76234 z"
         style="fill:#000000;fill-opacity:1;fill-rule:evenodd;stroke:none;stroke-width:0.04410399px;stroke-linecap:butt;stroke-linejoin:miter;stroke-opacity:1"
         inkscape:connector-curvature="0" />
      <path
         inkscape:connector-curvature="0"
         style="fill:#000000;fill-opacity:1;fill-rule:evenodd;stroke:none;stroke-width:0.04410399px;stroke-linecap:butt;stroke-linejoin:miter;stroke-opacity:1"
         d="m -41.049959,-19.056946 c 1.849098,0.01 3.920121,0.3767 6.075327,0.978 l 1.140673,23.1925999 c -5.636917,-5.73420002 -16.21526,-10.1763 -14.599972,-18.6300999 0.742075,-4.0712 3.597729,-5.5586 7.383972,-5.5405 z m -0.04402,2.0838 c -2.827424,-0.029 -5.239118,2.3564 -5.210815,4.5213 0.712502,5.3422999 4.193714,9.4341999 11.190267,11.93849988 L -35.354774,-12.679946 c -1.675415,-3.1237 -3.804651,-4.2735 -5.739205,-4.2932 z"
         id="path5040" />
      <path
         inkscape:connector-curvature="0"
         id="path5042"
         d="m -8.0517602,6.7553539 c -1.799706,-0.4246 -3.7348618,-1.2491 -5.6995208,-2.3199 l 4.1065828,-22.8545999 c 4.202268,6.8555 13.510002,13.5636999 10.03413097,21.4372999 -1.63901597,3.7999 -4.75608697,4.6066 -8.44119297,3.7372 z m 0.511722,-2.0205 c 2.748459,0.6641 5.634958,-1.1173 6.094442,-3.233 0.50770297,-5.3656 -1.963637,-10.1358 -8.217376,-14.1500999 l -2.5032258,11.90869988 c 0.929676,3.42060002 2.7456348,5.01990002 4.6261598,5.47440002 z"
         style="fill:#000000;fill-opacity:1;fill-rule:evenodd;stroke:none;stroke-width:0.04410399px;stroke-linecap:butt;stroke-linejoin:miter;stroke-opacity:1" />
    </g>
    <g
       transform="matrix(-1,0,0,-1,49.020435,88.69486)"
       id="g5044">
      <path
         id="path5046"
         d="m -38.22929,-22.945586 c 13.61869,-1.69313 21.278942,-0.88757 28.7436358,0 -0.5501678,6.86824 2.538645,24.6698399 -5.1708138,33.76234 l -17.109306,0 c -7.772233,-7.0809001 -5.051949,-21.9563 -6.463516,-33.76234 z"
         style="fill:#000000;fill-opacity:1;fill-rule:evenodd;stroke:none;stroke-width:0.04410399px;stroke-linecap:butt;stroke-linejoin:miter;stroke-opacity:1"
         inkscape:connector-curvature="0" />
      <path
         style="fill:#000000;fill-opacity:1;fill-rule:evenodd;stroke:none;stroke-width:0.04410399px;stroke-linecap:butt;stroke-linejoin:miter;stroke-opacity:1"
         d="m -39.397024,6.7553539 c 1.799706,-0.4246 3.734862,-1.2491 5.699521,-2.3199 l -4.106583,-22.8545999 c -4.202268,6.8555 -13.510002,13.5636999 -10.034131,21.4372999 1.639015,3.7999 4.756086,4.6066 8.441193,3.7372 z m -0.511722,-2.0205 c -2.748459,0.6641 -5.634958,-1.1173 -6.094442,-3.233 -0.507703,-5.3656 1.963637,-10.1358 8.217376,-14.1500999 l 2.503226,11.90869988 c -0.929676,3.42060002 -2.745635,5.01990002 -4.62616,5.47440002 z"
         id="path5050"
         inkscape:connector-curvature="0" />
      <path
         inkscape:connector-curvature="0"
         id="path5054"
         d="m -8.0517602,6.7553539 c -1.799706,-0.4246 -3.7348618,-1.2491 -5.6995208,-2.3199 l 4.1065828,-22.8545999 c 4.202268,6.8555 13.510002,13.5636999 10.03413097,21.4372999 -1.63901597,3.7999 -4.75608697,4.6066 -8.44119297,3.7372 z m 0.511722,-2.0205 c 2.748459,0.6641 5.634958,-1.1173 6.094442,-3.233 0.50770297,-5.3656 -1.963637,-10.1358 -8.217376,-14.1500999 l -2.5032258,11.90869988 c 0.929676,3.42060002 2.7456348,5.01990002 4.6261598,5.47440002 z"
         style="fill:#000000;fill-opacity:1;fill-rule:evenodd;stroke:none;stroke-width:0.04410399px;stroke-linecap:butt;stroke-linejoin:miter;stroke-opacity:1" />
    </g>
  </g>
</svg>
